<svg xmlns="http://www.w3.org/2000/svg" width="160" height="160" viewBox="0 0 160 160">
  <g fill="none" fill-rule="evenodd">
    <path fill="#FFF" d="M0 80C0 35.817 35.808 0 80 0c44.183 0 80 35.808 80 80 0 44.183-35.808 80-80 80-44.183 0-80-35.808-80-80zm100.25 0c0-11.185-9.065-20.25-20.25-20.25S59.75 68.815 59.75 80s9.065 20.25 20.25 20.25 20.25-9.065 20.25-20.25z"/>
    <path fill="#E3BF0B" d="M35.262 17.323L85 48.853c.334.05.668.106 1 .166L47.094 10.36c4.372-2.07 8.97-3.74 13.75-4.963L95.98 52.664c.233.133.463.27.692.407L74.28 3.21C76.167 3.07 78.075 3 80 3c3.005 0 5.97.172 8.886.507L104.68 59.97c.175.21.347.423.516.637L102.17 6.24c4.723 1.417 9.255 3.276 13.548 5.528l-5.46 58.08c.11.32.216.642.316.967l16.606-51.673c3.87 3.006 7.448 6.373 10.68 10.05l-25.88 52.202-.02.484 34.293-41.14c2.477 4.173 4.572 8.6 6.235 13.23l-42.7 37.95c-.235.593-.487 1.178-.756 1.754l46.95-26.223C156.652 71.53 157 75.72 157 80c0 .694-.01 1.385-.027 2.075l-53.965 20.315c-.41.42-.833.832-1.266 1.23l53.613-7.71c-1.02 4.846-2.492 9.525-4.375 13.99l-58.406-.38c-.42.177-.846.345-1.275.505l53.17 12.094c-2.69 4.09-5.75 7.92-9.14 11.43L80.25 112h-.007c-.267 0-.533-.003-.798-.01l45.54 30.504c-3.935 2.838-8.15 5.313-12.59 7.377L68.36 109.71l-.305-.125L99.7 154.46c-4.638 1.222-9.447 2.024-14.384 2.36l-26-51.856 12.08 51.562c-4.88-.542-9.62-1.54-14.18-2.95l-4.68-57.813c-.16-.288-.32-.58-.47-.872l-7.354 53.57c-4.33-2.23-8.42-4.87-12.22-7.85l16.35-55.65c-.06-.39-.11-.78-.153-1.174L22.56 131.29c-3.24-3.62-6.14-7.55-8.65-11.74l35.36-46.295c.1-.442.21-.88.324-1.314L7.92 107.14C6.215 102.616 4.924 97.887 4.093 93l50.052-30.826c.256-.37.52-.734.792-1.092L3.005 79.152c.054-4.998.584-9.88 1.546-14.607L63.03 53.57c.304-.196.614-.39.926-.576L8.55 51.24c1.85-4.592 4.13-8.962 6.788-13.064L74.095 48.93 24.222 26.917c3.364-3.534 7.06-6.75 11.04-9.594zM103.5 80c0-12.98-10.52-23.5-23.5-23.5S56.5 67.02 56.5 80s10.52 23.5 23.5 23.5 23.5-10.52 23.5-23.5z"/>
  </g>
</svg>